<svg width="49" height="48" viewBox="0 0 49 48" fill="none" xmlns="http://www.w3.org/2000/svg">
<g clip-path="url(#clip0_2934_170)">
<path d="M27.1124 43.604C31.7293 42.8503 39.7471 37.2583 42.9153 29.6485C42.637 29.4414 42.3703 29.2193 42.1164 28.983C41.5015 28.3583 41.4087 27.663 41.8435 27.1781C42.2826 26.6876 42.9762 26.6624 43.6922 27.14C44.1996 27.4792 44.684 27.8523 45.1798 28.2089C45.9231 28.7444 46.675 29.2675 47.4067 29.8179C47.6816 30.0148 47.9244 30.2533 48.1259 30.5248C48.2798 30.7315 48.3645 30.9814 48.3681 31.239C48.3717 31.4967 48.2939 31.7488 48.1457 31.9596C47.996 32.1885 47.7754 32.3619 47.5178 32.4533C47.2599 32.5448 46.9795 32.5491 46.719 32.4658C46.2999 32.305 45.8913 32.1177 45.496 31.9051C44.6967 33.7374 43.6369 35.4448 42.3494 36.9741C39.4224 40.3991 35.9942 43.1597 31.8783 45.0513C27.0837 47.2552 22.2866 47.1165 17.4745 45.1581C14.1686 43.8125 11.251 41.85 8.63218 39.4435C7.57306 38.4888 6.56308 37.481 5.60617 36.4238C4.71143 35.4156 3.94184 34.2964 3.07725 33.1741C2.83989 33.3314 2.59219 33.4726 2.33585 33.5966C2.08881 33.7156 1.80891 33.7481 1.54118 33.6888C1.27344 33.6295 1.03343 33.482 0.859746 33.2697C0.55568 32.8697 0.551717 32.3419 0.868874 31.8432C0.975081 31.6693 1.10542 31.5114 1.25603 31.3739C2.38046 30.3923 3.50689 29.4125 4.64877 28.4513C4.86911 28.296 5.11066 28.1732 5.36599 28.0865C5.90689 27.8552 6.36844 28.0393 6.75145 28.4237C6.91729 28.6203 7.01487 28.8654 7.02949 29.1221C7.04413 29.3789 6.97503 29.6336 6.83257 29.8476C6.59979 30.1783 6.32373 30.4762 6.01181 30.7335C5.68513 31.0254 5.31897 31.2736 4.94607 31.5592C5.07631 32.2645 5.40683 32.9173 5.89816 33.4397C9.13122 37.2145 12.8058 40.434 17.4076 42.4754C19.3346 43.3255 21.3955 43.8323 23.4969 43.9725C23.9272 44.0035 24.3615 43.9771 24.7602 43.9771C24.5105 36.8822 24.2643 29.8796 24.0138 22.7793L18.1536 22.534C18.1399 22.8291 18.1393 23.1189 18.1102 23.4057C18.0829 23.9127 18.0179 24.4171 17.9156 24.9144C17.8497 25.1988 17.6882 25.4519 17.4582 25.6316C17.2281 25.8113 16.9434 25.9067 16.6515 25.9017C16.3767 25.8882 16.1147 25.7817 15.9082 25.6C15.7017 25.4182 15.5629 25.1718 15.5146 24.9009C15.3889 24.3056 15.34 23.6965 15.369 23.0888C15.4365 21.9044 15.5737 20.7233 15.7112 19.5441C15.7571 19.1741 15.8514 18.8117 15.9916 18.4662C16.0557 18.269 16.1845 18.0992 16.3571 17.9844C16.5298 17.8697 16.7361 17.8165 16.9427 17.8338C17.1674 17.8406 17.3811 17.933 17.54 18.0919C17.699 18.2509 17.7912 18.4646 17.798 18.6893C17.8615 19.2248 17.9253 19.7604 17.9993 20.3817C19.9901 20.6677 21.9722 20.4946 24.0196 20.5152V7.2718C23.6401 7.1395 23.2222 7.01777 22.8234 6.85057C21.2616 6.19602 20.4374 4.94465 20.6344 3.55701C20.8798 1.82981 22.167 0.385639 23.7447 0.232713C24.8223 0.121099 25.9081 0.115411 26.9869 0.215812C29.2224 0.442126 30.2953 2.16817 29.5931 4.29564C29.1427 5.66086 28.2628 6.64072 26.8895 7.13976C26.7625 7.18597 26.6328 7.22461 26.5069 7.27321C26.4789 7.28392 26.4616 7.3218 26.3452 7.45549C26.4815 11.6741 26.6211 15.9979 26.7617 20.3302H34.2039C34.2791 19.8831 34.3368 19.4882 34.4142 19.0971C34.4663 18.8339 34.4764 18.5191 34.6312 18.3303C34.8253 18.0939 35.1401 17.8427 35.4178 17.8245C35.636 17.81 35.9315 18.1004 36.0922 18.3265C36.2346 18.5577 36.3119 18.8232 36.3161 19.0947C36.3909 20.5519 36.4675 22.0104 36.4798 23.4688C36.4669 23.9409 36.3617 24.4058 36.1707 24.8374C36.0896 25.047 35.9414 25.2238 35.749 25.3398C35.5566 25.4558 35.3313 25.5048 35.1082 25.4788C34.9011 25.4753 34.7004 25.4061 34.535 25.2813C34.3695 25.1567 34.248 24.9828 34.1875 24.7846C34.0216 24.2094 33.9477 23.6086 33.814 22.912H26.7913C26.8986 29.7875 27.0057 36.6849 27.1124 43.604ZM25.075 5.35342C26.2583 5.30086 27.0487 4.72405 27.2689 3.70117C27.4137 3.02878 27.1447 2.47993 26.4815 2.26353C25.94 2.06693 25.3751 1.9422 24.8013 1.89247C24.3308 1.87333 23.8631 1.97075 23.4394 2.17608C22.7698 2.5095 22.5433 3.19717 22.5455 3.89099C22.5475 4.52134 23.081 4.81112 23.6033 4.99261C24.0785 5.15744 24.5833 5.2364 25.075 5.35342Z" fill="#00AFC1"/>
</g>
<defs>
<clipPath id="clip0_2934_170">
<rect width="48" height="48" fill="white" transform="translate(0.5)"/>
</clipPath>
</defs>
</svg>
