<svg width="32" height="32" viewBox="0 0 32 32" fill="none" xmlns="http://www.w3.org/2000/svg">
<path d="M15.9004 20.7258C16.9204 19.4366 17.835 18.2893 18.7418 17.1353C20.2268 15.245 21.6775 13.3266 23.203 11.4701C23.8391 10.6961 24.6262 10.0448 25.3559 9.34967C25.6692 9.05113 26.0724 8.79048 26.45 9.14448C26.8694 9.5373 26.6054 9.96603 26.2792 10.2939C22.7687 13.8213 20.3602 18.1879 17.3064 22.0634C16.4064 23.2054 15.6486 23.3542 14.5352 22.3872C14.1783 22.0879 13.8437 21.7629 13.5341 21.4149C11.3621 18.8853 9.16933 16.3724 7.0581 13.7929C6.38024 12.9646 5.91349 11.96 5.386 11.0159C5.29622 10.855 5.33255 10.4309 5.40587 10.4058C5.67505 10.3126 6.0688 10.2105 6.26389 10.34C7.03122 10.85 7.8377 11.3581 8.45265 12.0291C9.93698 13.6487 11.318 15.3626 12.7484 17.0318C13.5897 18.0136 14.4477 18.981 15.2938 19.9588C15.4785 20.1727 15.6455 20.4029 15.9004 20.7258Z" fill="#30215F"/>
</svg>
