<svg width="65" height="64" viewBox="0 0 65 64" fill="none" xmlns="http://www.w3.org/2000/svg">
<g clip-path="url(#clip0_1176_2699)">
<path d="M64.1712 17.2309C64.6176 15.321 64.1982 14.6113 62.1858 14.5895C60.9004 14.576 59.6144 14.5442 58.3296 14.5609C57.5196 13.4683 56.6314 12.4359 55.6719 11.472C55.1 10.9995 54.5302 10.5095 53.9792 10.0351C52.7844 9.00763 51.5494 7.94437 50.2572 7.03711C40.3866 0.0900948 30.1307 0.0510122 19.776 3.7353C13.709 5.89158 9.04843 9.44941 5.83664 14.3474C4.72777 14.3396 3.61863 14.3364 2.5103 14.3272C0.50064 14.3108 -0.0314226 15.0752 0.561017 16.9606C0.633405 17.2642 0.675034 17.5744 0.685273 17.8865C0.872776 19.9796 1.22891 22.0542 1.75021 24.0901C-0.825478 34.8351 1.65749 44.3269 9.14681 52.3105C9.34492 52.5202 9.54707 52.7296 9.74895 52.9304C13.8392 57.0206 18.9337 59.5459 22.9702 61.303C24.7028 62.0596 33.5926 62.9787 35.998 62.6203C50.2923 60.4858 59.6991 52.4234 62.9753 38.9353C63.6008 36.2932 63.9123 33.5865 63.9033 30.8714C63.8964 28.5541 63.5759 26.2483 62.9505 24.017C63.0353 23.7389 63.1161 23.4604 63.1931 23.1815C63.7246 21.2559 63.7146 19.185 64.1712 17.2309ZM59.5546 22.9912C59.1438 24.4138 58.719 25.8059 58.2266 27.1733C57.0425 30.4678 54.4377 32.1182 50.9785 32.2077C48.8403 32.263 46.6541 32.2454 44.5609 31.8667C40.2124 31.0797 37.2737 27.7371 36.5974 23.3324C36.3818 21.9273 36.7492 20.9335 38.1467 20.5381C40.9855 19.736 43.8018 18.7007 46.7015 18.3061C50.0551 17.8495 53.4536 17.7233 56.8452 17.5514C57.935 19.2655 58.8431 21.0886 59.5546 22.9912ZM19.8161 7.01928C28.9014 3.24362 38.0173 2.57733 46.9085 8.23219C48.5341 9.26721 52.8682 12.7704 53.5504 13.2963L53.5943 13.3286L53.6305 13.3688C54.0046 13.7655 54.3852 14.1998 54.7647 14.6626C49.613 14.8847 44.5091 15.4725 39.5885 17.2077C38.0433 17.7833 36.5821 18.5629 35.2435 19.5258C33.9139 20.4538 31.1002 20.4751 29.7482 19.5271C28.337 18.5379 26.8373 17.5765 25.2349 16.9776C20.9608 15.38 16.4574 14.7741 11.9271 14.5105C11.2656 14.4719 10.6036 14.4442 9.9414 14.4218C12.5759 11.1817 15.9671 8.6394 19.8161 7.01928ZM7.94279 17.2417C9.1142 17.2347 10.277 17.2417 11.4373 17.2956C16.0194 17.5056 20.5646 18.0743 24.9036 19.6357C28.5652 20.9535 28.8601 20.9721 27.5397 25.113C26.0642 29.7398 22.4233 31.7269 17.7779 31.9721C15.9435 32.0362 14.1069 31.9504 12.2864 31.7158C10.008 31.4616 8.34764 30.2312 7.1482 28.2407C6.28187 26.7707 5.6224 25.1883 5.18841 23.5381C5.2035 23.4842 5.21698 23.4316 5.23234 23.3788C5.85624 21.2207 6.76792 19.1564 7.94279 17.2417ZM4.16929 17.2741C4.12482 17.3641 4.07873 17.4528 4.03452 17.5436C4.02105 17.4539 4.00757 17.3644 3.99382 17.2741H4.16929ZM60.9839 30.6867C60.955 33.6431 60.5547 36.5841 59.7926 39.4407C57.5341 47.6494 52.1348 53.632 43.2857 57.7241C34.2897 62.0313 21.3886 57.6769 17.956 55.4107C14.1621 52.8169 10.8424 49.59 8.14198 45.8713C5.02291 41.4549 3.6879 35.616 4.10892 29.6978C4.21673 29.8754 4.3267 30.0528 4.44233 30.2282C5.86117 32.3764 7.73336 33.8669 10.2511 34.5068C13.7343 35.4273 17.3839 35.5253 20.9115 34.793C26.064 33.706 29.2456 30.5158 30.7345 25.548C30.9194 24.7975 31.0655 24.0379 31.1722 23.2723H33.5093C33.5727 23.6321 33.6322 23.9345 33.6789 24.2391C34.591 30.1837 38.5141 34.3618 44.4603 35.1446C47.2608 35.5133 50.1745 35.3114 53.0097 35.0502C56.5676 34.7222 59.2276 32.7635 60.7724 29.5476C60.8287 29.4304 60.8829 29.3115 60.9381 29.1935C60.9726 29.6897 60.9901 30.1875 60.9839 30.6867ZM60.2438 17.4999C60.4883 17.5242 60.7635 17.5509 61.0926 17.5754C60.9963 17.9023 60.9039 18.2258 60.8112 18.549C60.6299 18.1968 60.4409 17.8471 60.2438 17.4999Z" fill="#00AFC1"/>
<path d="M45.4887 38.7313C44.6855 38.1036 43.6626 38.5548 42.6979 40.0664C41.0753 42.6092 38.8056 44.1585 35.8447 44.5226C33.6784 44.7889 31.4642 44.9897 29.2966 44.8433C26.3093 44.6417 23.4641 43.8999 21.5633 41.1776C21.3008 40.8016 20.1685 40.5731 19.8383 40.817C19.597 41.0439 19.4127 41.3246 19.3003 41.6362C19.1879 41.9478 19.1506 42.2815 19.1914 42.6103C19.5626 44.2029 20.7008 45.318 22.0628 46.1829C25.3018 48.2381 28.9298 48.6047 32.7442 48.6338C33.8898 48.4934 35.1431 48.4001 36.3751 48.1756C40.4317 47.4398 43.8844 45.7913 45.6766 41.7636C46.1396 40.7283 46.6358 39.6281 45.4887 38.7313Z" fill="#00AFC1"/>
</g>
<defs>
<clipPath id="clip0_1176_2699">
<rect width="64" height="64" fill="white" transform="translate(0.333496)"/>
</clipPath>
</defs>
</svg>
