<svg width="25" height="25" viewBox="0 0 25 25" fill="none" xmlns="http://www.w3.org/2000/svg">
<g clip-path="url(#clip0_913_1812)">
<path d="M12.3474 14.5098C10.26 16.3813 8.21869 18.194 6.19783 20.0293C5.02709 21.0925 3.89828 22.2018 2.73027 23.2679C2.41918 23.5591 2.06171 23.7959 1.67259 23.9683C1.4807 24.0489 1.06635 23.9683 0.971857 23.8205C0.846828 23.6243 0.883794 23.2762 0.951612 23.0201C1.00095 22.8335 1.20183 22.6789 1.35337 22.529C4.23535 19.6873 7.11865 16.8474 10.0032 14.0094C10.3269 13.6911 10.6598 13.3825 11.0317 13.029C9.77112 11.6299 8.50859 10.2799 7.3033 8.87968C5.37966 6.64393 3.49463 4.37493 1.59365 2.11983C1.52454 2.03787 1.4651 1.94817 1.39535 1.86621C1.0627 1.4724 0.828169 1.04794 1.20695 0.570234C1.49059 0.21256 2.16867 0.265981 2.64082 0.75256C3.8167 1.964 4.96215 3.2048 6.09801 4.45513C8.17207 6.73685 10.2299 9.03342 12.2966 11.3219C12.3851 11.4052 12.4791 11.4822 12.5782 11.5525C14.1762 10.0229 15.7566 8.49826 17.3501 6.98674C19.1982 5.23467 21.0528 3.4895 22.9139 1.7512C23.612 1.0978 24.1718 0.98003 24.6002 1.36126C25.0442 1.7562 25.0029 2.41603 24.2948 3.12347C22.3805 5.03639 20.4199 6.90285 18.4612 8.7714C16.9691 10.1953 15.4531 11.5947 13.8651 13.082C15.1555 14.4187 16.3898 15.751 17.6838 17.0216C18.9267 18.2421 20.239 19.3918 21.5063 20.5871C22.0018 21.0369 22.4657 21.5205 22.8949 22.0344C23.2411 22.4656 23.2922 23.0009 22.8667 23.4262C22.4474 23.8456 21.9619 23.6974 21.5574 23.3799C20.7837 22.8042 20.042 22.1862 19.3358 21.5289C17.1738 19.4085 15.05 17.2492 12.9123 15.104C12.7432 14.9346 12.5817 14.7568 12.3474 14.5098Z" fill="#475569"/>
</g>
<defs>
<clipPath id="clip0_913_1812">
<rect width="24" height="24" fill="white" transform="translate(0.889282 0.169434)"/>
</clipPath>
</defs>
</svg>
