<svg width="12" height="18" viewBox="0 0 12 18" fill="none" xmlns="http://www.w3.org/2000/svg">
<path d="M6.03235 8.11741C6.04992 5.94754 6.06401 3.77767 6.08775 1.6078C6.09258 1.17531 6.12653 0.74218 6.16887 0.311435C6.17662 0.240172 6.20568 0.172913 6.25228 0.11844C6.29887 0.0639673 6.36082 0.0248242 6.43002 0.00612875C6.54081 -0.0292458 6.69798 0.0937353 6.72109 0.240615C6.74356 0.383062 6.77823 0.52479 6.78685 0.66795C6.84225 1.58223 6.92068 2.49643 6.93722 3.41158C6.97101 5.29173 6.97947 7.17243 6.98161 9.05298C6.98366 10.8371 6.96143 12.6214 6.95723 14.4055C6.9566 14.692 6.99261 14.9786 7.01817 15.2646C7.02286 15.2836 7.03225 15.3011 7.04545 15.3155C7.05865 15.3299 7.07526 15.3408 7.09375 15.3471C7.13799 15.3522 7.21245 15.3392 7.22828 15.3098C7.52639 14.7616 7.83993 14.22 8.10592 13.6562C8.72461 12.3447 9.48338 11.1144 10.2447 9.88487C10.3698 9.68283 10.4969 9.47106 10.7452 9.38954C10.7903 9.37475 10.8677 9.35164 10.8828 9.37047C10.9457 9.43793 10.991 9.5199 11.0145 9.60908C11.0257 9.70404 11.0103 9.80025 10.9701 9.887C10.8309 10.1942 10.6856 10.4992 10.5296 10.7981C9.41422 12.9344 8.2922 15.0672 7.17985 17.205C6.76042 18.0114 6.35366 18.3946 5.43147 17.4266C5.16572 17.1477 4.90021 16.8656 4.66383 16.5623C3.56645 15.1559 2.47578 13.7443 1.39181 12.3276C1.25207 12.1328 1.12771 11.9274 1.01986 11.7133C0.944043 11.5736 0.989075 11.4337 1.07993 11.3131C1.18003 11.1804 1.47111 11.098 1.59907 11.1438C1.88318 11.2455 2.09162 11.4481 2.28036 11.6656C3.007 12.5033 3.72839 13.3455 4.44454 14.1921C4.91256 14.7423 5.37369 15.2982 5.84266 15.8475C5.86585 15.8746 5.93762 15.876 5.98083 15.865C5.99953 15.8578 6.0162 15.8461 6.0294 15.831C6.04261 15.816 6.05196 15.7979 6.05665 15.7784C6.07556 15.4914 6.09947 15.2037 6.09796 14.9164C6.08599 12.65 6.07105 10.3836 6.05317 8.11717L6.03235 8.11741Z" fill="#FDFCFF"/>
</svg>
