<svg width="65" height="64" viewBox="0 0 65 64" fill="none" xmlns="http://www.w3.org/2000/svg">
<g clip-path="url(#clip0_1176_2693)">
<path d="M31.9903 46.101C27.8877 46.1218 24.4901 45.4106 21.6335 43.1261C20.671 42.3565 19.9301 41.2716 19.2198 40.24C18.8116 39.6469 18.8681 38.8598 19.6022 38.4579C20.2251 38.117 20.8562 38.3096 21.2912 38.8967C23.8983 42.4158 27.6647 43.19 31.6925 43.1625C33.2195 43.1521 34.7546 42.8021 36.2668 42.5089C38.9289 41.9926 41.068 40.6621 42.5201 38.3057C42.8655 37.771 43.2696 37.2767 43.7249 36.8318C44.3019 36.245 44.9972 35.8687 45.7841 36.4359C46.4832 36.94 46.4695 37.6416 46.1799 38.3946C45.3458 40.6304 43.7644 42.509 41.7035 43.7121C38.5538 45.5838 35.0502 46.0073 31.9903 46.101Z" fill="#00AFC1"/>
<path d="M23.9309 19.7845L22.1707 19.3941C18.2245 18.5199 14.8054 19.2958 12.1083 22.5114C11.8278 22.8458 11.2207 22.9064 10.7653 23.0941C10.6333 22.575 10.2276 21.8942 10.4208 21.5642C11.0051 20.5697 11.6726 19.5152 12.5739 18.8349C16.2982 16.028 20.432 15.8794 24.7169 17.3323C25.4035 17.5653 25.9444 18.0445 25.7564 18.8608C25.572 19.6668 24.9235 19.867 23.9309 19.7845Z" fill="#00AFC1"/>
<path d="M21.1938 23.7959C23.4103 23.8424 25.2449 24.8169 26.7344 26.4861C26.991 26.7422 27.1639 27.0703 27.23 27.4268C27.2644 27.8932 27.2559 28.5322 26.9783 28.7996C26.7502 29.0182 26.0495 28.9272 25.6552 28.7537C25.0419 28.4838 24.5119 28.0259 23.9447 27.6502C20.8687 25.6127 18.1206 26.3009 16.2896 29.4911C16.0483 29.9113 15.3976 30.4003 14.9905 30.3566C14.2094 30.2724 14.2015 29.4824 14.2747 28.8327C14.5558 26.3367 17.0646 24.1793 20.042 23.8604C20.4032 23.8211 20.7682 23.8181 21.1938 23.7959Z" fill="#00AFC1"/>
<path d="M45.561 15.3345C47.4415 15.2689 49.2009 15.8262 50.863 16.7319C51.2633 16.945 51.639 17.2015 51.9832 17.4968C52.5282 17.9752 52.9003 18.5814 52.4916 19.3C52.0466 20.0816 51.2895 20.0207 50.5636 19.7783C50.1811 19.634 49.8171 19.4444 49.4795 19.2137C46.5077 17.3384 43.5664 17.4504 40.6409 19.3204C40.1605 19.6627 39.6514 19.9627 39.1192 20.2171C38.8309 20.3367 38.2777 20.3447 38.1356 20.1687C38.0285 20.0073 37.9556 19.8256 37.9215 19.6349C37.8874 19.4441 37.8928 19.2484 37.9373 19.0598C38.0825 18.6799 38.3255 18.345 38.6416 18.0891C40.577 16.2843 42.803 15.1856 45.561 15.3345Z" fill="#00AFC1"/>
<path d="M46.1337 22.686C47.6746 22.633 49.2452 23.2616 50.5708 24.4788C51.0079 24.8749 51.3852 25.3323 51.6909 25.8368C52.26 26.8002 52.1496 27.8648 51.5215 28.3293C50.8634 28.8161 50.0752 28.5427 49.2078 27.5266C46.8484 24.7624 44.2549 24.5927 41.4901 27.0223C41.3876 27.1122 41.2923 27.2099 41.1896 27.3006C40.7074 27.7317 40.1672 28.267 39.5375 27.7104C38.8545 27.1067 39.1875 26.3958 39.6293 25.7628C40.9421 23.8834 43.4443 22.645 46.1337 22.686Z" fill="#00AFC1"/>
<path d="M1.79907 23.4369C-1.02912 34.5527 1.44746 44.3588 9.16516 52.5863C9.36597 52.7989 9.57087 53.0114 9.77577 53.2163C13.9213 57.3619 19.0851 59.9215 23.1769 61.7028C24.9328 62.4697 33.9438 63.401 36.3816 63.0379C50.8703 60.8741 60.4051 52.7024 63.7259 39.0308C64.3601 36.3527 64.6759 33.6092 64.6668 30.8571C64.6821 24.374 61.9525 16.8369 56.3232 11.192C55.7437 10.7128 55.1659 10.2164 54.6078 9.73527C53.3964 8.6941 52.1446 7.61609 50.8348 6.69676C40.8299 -0.345035 30.4345 -0.384436 19.9389 3.3497C10.4364 6.72839 4.33357 13.488 1.79907 23.4369ZM19.9796 6.67815C29.1887 2.8514 38.4287 2.17605 47.4406 7.90756C49.0885 8.95666 53.4813 12.5072 54.1731 13.0405L54.2174 13.0733L54.2542 13.114C57.7701 16.8424 61.7946 23.6596 61.7072 30.6675C61.6778 33.664 61.2722 36.6449 60.4999 39.5403C58.2105 47.8609 52.7377 53.9249 43.7682 58.0724C34.65 62.4385 21.5735 58.0247 18.0942 55.7279C14.2486 53.0988 10.8837 49.828 8.14666 46.0584C3.8541 39.981 2.89079 31.245 5.19744 23.2591C6.27699 19.5718 8.16353 16.1709 10.7203 13.303C13.277 10.4352 16.4399 8.17219 19.9796 6.67815Z" fill="#00AFC1"/>
</g>
<defs>
<clipPath id="clip0_1176_2693">
<rect width="64" height="64" fill="white" transform="translate(0.666504)"/>
</clipPath>
</defs>
</svg>
