<svg width="48" height="48" viewBox="0 0 48 48" fill="none" xmlns="http://www.w3.org/2000/svg">
<path d="M22.5387 44.2024L22.7832 44.2768C23.6826 44.5488 24.532 44.8053 25.0918 45.9294C25.106 45.9578 25.1259 45.9829 25.1503 46.0032C25.1747 46.0232 25.2031 46.038 25.2334 46.0463C25.2526 46.0514 25.2723 46.054 25.2921 46.054C25.3355 46.054 25.3779 46.0413 25.4143 46.0175C25.8271 45.7462 26.2159 45.5005 26.5851 45.267C27.3585 44.7778 28.0266 44.3556 28.6654 43.8637C30.9568 42.1378 33.0476 40.1567 34.8984 37.9574C37.331 35.0175 39.8461 31.9774 42.2139 28.7952C43.6958 26.803 44.9592 24.579 46.027 22.6516C47.095 20.7014 47.7308 18.5405 47.8907 16.3181C48.1805 12.6659 47.3197 9.37398 45.3328 6.53387C43.1213 3.37292 40.18 1.83349 36.5972 1.95217C32.5554 2.08848 29.0008 3.64767 26.0318 6.58665C25.8878 6.73592 25.7544 6.8953 25.6329 7.0636C25.4021 7.36747 25.183 7.65593 24.8534 7.77021C21.3902 4.36595 18.7423 3.03428 14.7812 2.69298C10.716 2.34242 7.42501 3.6618 4.99905 6.61246C3.7951 8.07093 2.73986 9.64817 1.84936 11.3203C-0.0488234 14.9071 -0.444361 18.7222 0.675566 22.6604C1.67435 26.1755 3.33975 29.4612 5.57939 32.3355C10.0571 38.1003 15.7632 42.0933 22.5387 44.2024ZM5.7703 11.9995C6.29049 11.0103 6.87 10.054 7.50552 9.1359C9.01643 6.91036 11.1459 5.78713 13.8463 5.78713C14.1809 5.78713 14.5241 5.80435 14.8761 5.83886C18.4831 6.19271 21.3766 7.79641 23.4762 10.6053C23.7284 10.9426 24.0031 11.2549 24.2453 11.5301C24.3439 11.6424 24.4366 11.748 24.5184 11.8446C24.5525 11.8849 24.5996 11.9117 24.6513 11.9205C25.6251 12.0901 26.0187 11.5805 26.3108 11.0912C27.9969 8.26896 30.6212 6.58429 34.5701 5.78982C35.5052 5.62694 36.4591 5.60278 37.4012 5.71821C38.8971 5.86068 40.1802 6.60259 41.2155 7.92268C42.3952 9.43689 43.0944 11.2753 43.2214 13.1972C43.4302 15.4187 43.0259 17.6553 42.0535 19.6594C41.3206 21.2126 40.4865 22.7152 39.5566 24.1569C37.8299 26.7242 35.9859 29.2765 34.2029 31.7447L33.5832 32.6035C32.2554 34.4434 30.8822 36.2982 29.5545 38.0917C29.0754 38.7388 28.5967 39.3862 28.1182 40.034C27.9118 40.3137 27.6969 40.5876 27.4696 40.8778C27.3945 40.9734 27.3184 41.0707 27.2409 41.17C26.604 40.9058 25.984 40.6475 25.3759 40.3952C23.9407 39.7993 22.5723 39.231 21.2071 38.6543C17.4284 37.0838 14.0057 34.7541 11.147 31.807C8.2159 28.7634 6.18443 25.5074 4.93687 21.8525C3.79927 18.5187 4.07175 15.2957 5.7703 11.9995Z" fill="#00AFC1"/>
</svg>
