<svg width="20" height="20" viewBox="0 0 20 20" fill="none" xmlns="http://www.w3.org/2000/svg">
<g clip-path="url(#clip0_3978_204)">
<path d="M13.946 6.76302C12.98 5.82195 11.7376 5.7204 10.7037 6.4981C10.2974 6.80376 9.90654 7.23286 9.50899 7.80958C9.00276 8.54465 8.87211 9.44072 8.75694 10.2311C8.55301 11.6295 8.70924 13.018 8.86022 14.3603C8.8826 14.5587 8.93399 15.0149 9.37965 15.0148C9.39391 15.0148 9.40867 15.0144 9.42383 15.0134C9.86645 14.9851 9.86809 14.6065 9.86916 14.3558C9.86916 14.3317 9.86916 14.3082 9.86981 14.2853C9.87539 13.9847 9.86809 13.6795 9.86096 13.3844C9.85088 12.9628 9.84031 12.5268 9.86801 12.1022C9.9194 11.2115 10.0239 10.3247 10.181 9.44645C10.3175 8.71186 10.7268 8.05598 11.3267 7.61042C11.9643 7.12542 12.5335 7.18271 13.0674 7.78508C13.4716 8.23736 13.7411 8.79375 13.8455 9.39129C13.9638 10.0856 14.0454 10.7992 14.1242 11.4896C14.1549 11.7586 14.1856 12.0278 14.2185 12.2964L14.2044 12.2983C14.1851 12.3009 14.1674 12.31 14.1541 12.3242C14.1408 12.3383 14.1328 12.3566 14.1315 12.376C14.1231 12.4978 14.1145 12.6196 14.1056 12.7414C14.0846 13.0346 14.0628 13.3378 14.0474 13.6368L14.0456 13.673C14.0276 13.8896 14.0298 14.1074 14.0519 14.3237C14.1035 14.7062 14.3727 14.9812 14.7218 15.0079C15.0578 15.0336 15.3702 14.806 15.4988 14.4417C15.528 14.3554 15.5461 14.2657 15.5528 14.1748C15.681 12.718 15.754 10.8007 15.1766 8.8894C14.9096 8.00526 14.5069 7.30949 13.946 6.76302Z" fill="#00AFC1"/>
<path d="M5.9413 14.1782C5.94663 14.4396 6.01173 14.6964 6.13163 14.9288C6.20687 15.0741 6.45695 15.1496 6.61146 15.1496C6.61646 15.1496 6.6213 15.1496 6.62614 15.1496C6.77122 15.145 6.9505 14.9704 6.99 14.836C7.05072 14.6134 7.07533 14.3826 7.06295 14.1522C7.01377 12.8038 6.95712 11.4332 6.90253 10.1077L6.79377 7.45668C6.78557 7.25479 6.77009 6.87887 6.31295 6.84116C6.29793 6.84011 6.28286 6.84293 6.26925 6.84937C5.9181 7.01961 5.92918 7.33986 5.93812 7.59724C5.93968 7.64125 5.94122 7.68501 5.94105 7.72771C5.93466 9.49497 5.92859 11.8253 5.9413 14.1782Z" fill="#00AFC1"/>
<path d="M6.33784 4.22924C6.28235 4.18653 6.22498 4.14243 6.17457 4.09652C6.16288 4.08578 6.14836 4.07859 6.13273 4.07579C6.1171 4.07299 6.10098 4.0747 6.08629 4.08071C5.53104 4.30539 5.49563 4.692 5.56366 4.97675C5.59712 5.09062 5.6544 5.1961 5.7317 5.28617C5.80899 5.37624 5.90454 5.44885 6.01202 5.49921C6.04399 5.51084 6.07785 5.51642 6.11186 5.51562C6.28817 5.51562 6.52605 5.39316 6.60326 5.26816C6.66205 5.16566 6.69845 5.05187 6.7101 4.93429C6.72176 4.81671 6.7084 4.69801 6.67088 4.58597C6.61047 4.43916 6.47186 4.3326 6.33784 4.22924Z" fill="#00AFC1"/>
<path d="M19.5774 3.36263C19.2859 0.968372 17.271 0.00730921 15.4044 0.117883C14.2966 0.182883 13.1995 0.217551 11.893 0.249519C10.7093 0.278535 9.49546 0.303475 8.42456 0.325442C6.88784 0.357082 5.29875 0.389858 3.72096 0.433464C1.90948 0.483628 0.448832 1.65052 0.167931 3.27126C0.0551438 3.92167 0.0518606 4.57806 0.0588278 5.307C0.0792377 7.43577 0.110386 9.58668 0.140795 11.6668L0.144157 11.892C0.156233 12.7288 0.168027 13.5657 0.179558 14.4026C0.181525 14.5436 0.186442 14.6849 0.191524 14.8262L0.191945 14.8375C0.212555 15.1877 0.209081 15.5388 0.181539 15.8885C0.0840795 16.8223 0.441538 17.818 1.13785 18.5518C1.91187 19.3674 3.00882 19.7821 4.22751 19.72C5.55734 19.6511 6.91383 19.6643 8.22562 19.6769L8.32062 19.6778C9.87735 19.6927 11.4605 19.7323 12.9935 19.7709L13.7664 19.7901C13.8966 19.7979 14.0258 19.8174 14.1523 19.8486C14.2187 19.8627 14.2851 19.8768 14.3513 19.8882C14.3608 19.8898 14.3704 19.8906 14.38 19.8906H15.2188C15.227 19.8906 15.2353 19.89 15.2434 19.8888C15.411 19.8642 15.5795 19.842 15.7473 19.82L15.76 19.8184C16.1363 19.7692 16.5255 19.7185 16.9049 19.6361C18.5413 19.2806 19.9277 17.5835 19.9323 15.9302C19.9334 15.5405 19.9348 15.1509 19.9364 14.7612L19.9371 14.5656C19.9453 12.4299 19.9543 10.2213 19.9084 8.04673C19.8748 6.46501 19.7635 4.88903 19.5774 3.36263ZM18.6676 15.8149C18.6727 17.0918 17.5588 18.2874 16.1319 18.5367C15.0385 18.7277 13.9209 18.6627 12.8399 18.6002C12.4387 18.5769 12.0237 18.5528 11.6114 18.5419C11.1433 18.5296 10.6667 18.5054 10.2031 18.4819L10.1621 18.4799C9.96259 18.4698 9.76292 18.4597 9.56489 18.4507H9.55571C9.05128 18.4507 8.54677 18.45 8.04227 18.4488C7.45686 18.4478 6.86234 18.4468 6.26472 18.4468C5.47907 18.4468 4.83316 18.4485 4.23193 18.4521H4.20546C3.323 18.4521 2.59506 18.1903 2.1003 17.6949C1.58588 17.1798 1.31743 16.4104 1.32424 15.4698C1.34014 13.2581 1.33054 11.019 1.3212 8.85348C1.31595 7.61699 1.31054 6.33854 1.30988 5.07534C1.29757 4.34783 1.46213 3.62823 1.7894 2.97837C2.16055 2.2646 2.82349 1.88583 3.87562 1.78641C5.35202 1.64706 6.54334 1.57115 7.62473 1.54763C10.7467 1.47927 13.1493 1.45509 15.4148 1.4691C17.0673 1.47935 18.0214 2.25673 18.3328 3.84575C18.6771 5.60722 18.6722 7.41773 18.6669 9.16954L18.6665 9.31807C18.6591 11.8029 18.6597 13.8673 18.6676 15.8149Z" fill="#00AFC1"/>
</g>
<defs>
<clipPath id="clip0_3978_204">
<rect width="20" height="20" fill="white"/>
</clipPath>
</defs>
</svg>
