<svg width="48" height="48" viewBox="0 0 48 48" fill="none" xmlns="http://www.w3.org/2000/svg">
<path d="M40.5532 16.8895C40.2361 17.4404 40.0268 17.9536 39.6897 18.3625C38.5926 19.694 37.4457 20.9846 36.3238 22.2961C29.3893 30.4004 21.7338 37.8142 14.1259 45.2731C13.5236 45.8641 12.8895 46.4279 12.2327 46.9582C11.8613 47.2559 11.4501 47.5008 11.0109 47.6857C10.6733 47.843 10.2932 47.8855 9.92903 47.8066C9.56488 47.7277 9.23688 47.5317 8.99552 47.2488C6.74841 44.9255 4.50394 42.6001 2.26201 40.2725C1.49314 39.4696 1.4118 38.9585 2.08816 38.035C3.12638 36.6172 4.1601 35.1725 5.37709 33.913C8.92393 30.2418 12.495 26.5889 16.18 23.0564C20.1842 19.2179 24.3217 15.5174 28.4137 11.7704C29.2803 10.9775 30.1864 10.2247 31.1028 9.4876C31.9031 8.84324 32.171 8.90367 33.0465 9.48074C35.5924 11.1588 37.621 13.3887 39.679 15.5862C40.0135 15.9449 40.2357 16.4101 40.5532 16.8895ZM10.3491 44.7061L31.372 22.961L26.367 17.5257C18.9597 24.5935 11.3133 31.3865 4.50879 39.1042L10.3491 44.7061ZM33.5076 20.5863L37.0404 16.8303C35.5425 15.0047 33.8384 13.357 31.9621 11.9195L28.2754 15.5958C30.1012 17.3373 31.8151 18.9723 33.5076 20.5863Z" fill="#00AFC1"/>
<path d="M41.7956 4.72944C41.2965 4.60216 40.8706 4.50914 40.4541 4.38292C40.2747 4.33406 40.1172 4.22589 40.0075 4.07615C39.8977 3.92639 39.8425 3.74397 39.8506 3.5588C39.8375 3.12102 39.9877 2.74216 40.43 2.6018C40.9136 2.44816 41.4196 2.36221 42.0258 2.22078C42.1054 1.89036 42.1966 1.50979 42.2889 1.12922C42.4595 0.425074 42.7228 0.164944 43.2746 0.155516C43.8168 0.146087 44.1136 0.411142 44.2984 1.10157C44.3483 1.34133 44.3858 1.58351 44.4103 1.82714C44.6846 1.85199 44.9664 1.86445 45.2439 1.90537C45.9252 2.00587 46.292 2.34594 46.3602 2.91894C46.4295 3.50373 46.1832 3.93509 45.5701 4.2173C45.2758 4.33563 44.975 4.43701 44.6691 4.52092C44.5977 4.96175 44.5011 5.39817 44.38 5.82807C44.1532 6.49235 43.7346 6.8138 43.2058 6.81209C42.6484 6.81209 42.1502 6.40492 41.9628 5.74899C41.8873 5.41265 41.8315 5.07224 41.7956 4.72944Z" fill="#00AFC1"/>
<path d="M23.8876 7.81295C23.7645 9.23216 23.4317 9.71602 22.6222 9.70916C21.8604 9.70273 21.525 9.22228 21.3162 7.805C20.9524 7.70321 20.5662 7.60335 20.1855 7.48678C19.987 7.4345 19.8145 7.31173 19.7006 7.14159C19.5867 6.97143 19.5391 6.76565 19.567 6.56302C19.5721 6.3768 19.6428 6.19826 19.7666 6.05859C19.8903 5.91892 20.0593 5.82693 20.2442 5.79866C20.6297 5.69709 21.0332 5.66343 21.4798 5.59185C21.5672 5.315 21.6734 5.04716 21.7345 4.76945C21.8421 4.28409 22.1158 3.97659 22.6181 3.9318C23.0733 3.8913 23.3829 4.20007 23.5554 4.82921C23.5939 4.99903 23.6236 5.17068 23.6447 5.34352C24.0829 5.44723 24.5089 5.46671 24.8419 5.65207C25.127 5.81043 25.4839 6.15759 25.486 6.42352C25.4436 6.80778 25.2554 7.16137 24.9598 7.41178C24.7087 7.634 24.2933 7.67195 23.8876 7.81295Z" fill="#00AFC1"/>
<path d="M44.6101 21.4519C45.2712 21.6134 46.1726 21.4433 46.326 22.4329C46.4684 23.3528 45.6763 23.53 45.2033 23.7539C45.0215 24.3278 44.8044 24.8899 44.5533 25.4371C44.4658 25.6041 44.1151 25.6971 43.8783 25.711C43.1324 25.7539 42.7811 25.249 42.4819 23.749C41.9574 23.5009 41.0835 23.5551 41.0958 22.6696C41.1081 21.7842 41.8888 21.7645 42.4922 21.67C42.7846 21.0731 42.6301 20.2107 43.5894 20.1938C44.0545 20.1854 44.1749 20.3443 44.6101 21.4519Z" fill="#00AFC1"/>
</svg>
