<svg width="64" height="64" viewBox="0 0 64 64" fill="none" xmlns="http://www.w3.org/2000/svg">
<g clip-path="url(#clip0_1176_2687)">
<path d="M32.6833 44.5872C29.4494 44.5178 26.9676 44.0452 24.6022 43.0075C22.8344 42.2504 21.3381 40.9746 20.311 39.3488C19.9285 38.7477 19.6245 38.0336 20.243 37.4888C20.9284 36.8853 21.609 37.2839 22.1368 37.8713C25.306 41.4046 29.4261 42.2097 33.8272 41.5581C37.5326 41.0093 40.3362 38.9081 41.9549 35.416C42.1462 35.0062 42.2719 34.4767 42.5994 34.2412C43.0639 33.9079 43.7608 33.5353 44.2244 33.6637C44.6993 33.7951 45.329 34.5106 45.3284 34.9693C45.3415 35.8665 45.1065 36.7498 44.6493 37.5219C41.6826 42.0499 37.4821 44.4673 32.6833 44.5872Z" fill="#00AFC1"/>
<path d="M40.7955 22.3971C40.9881 21.3611 41.0872 20.6005 41.2777 19.8634C41.5096 18.9657 42.0637 18.313 43.0316 18.1969C44.0151 18.0802 44.7951 18.5198 45.3721 19.2968C46.4103 20.6964 46.2969 24.2877 45.1894 25.6236C44.1922 26.8257 42.3718 26.7741 41.67 25.3816C41.1785 24.4073 41.035 23.2566 40.7955 22.3971Z" fill="#00AFC1"/>
<path d="M22.1373 22.4475C21.8641 23.4873 21.7548 24.3642 21.4065 25.1347C20.7544 26.5826 19.1263 26.7534 18.2499 25.4445C17.0852 23.705 16.9986 21.7213 17.6762 19.8192C18.2155 18.3051 20.2041 18.1593 21.0603 19.5502C21.6103 20.4438 21.8168 21.5492 22.1373 22.4475Z" fill="#00AFC1"/>
<path d="M1.13257 23.4376C-1.69562 34.5534 0.780935 44.3594 8.49864 52.5869C8.69944 52.7995 8.90434 53.012 9.10897 53.2169C13.2548 57.3625 18.4186 59.9221 22.5101 61.7034C24.2663 62.4703 33.277 63.4016 35.7151 63.0385C50.2038 60.8748 59.7386 52.703 63.0594 39.0314C63.6935 36.3533 64.0093 33.6098 64.0003 30.8577C64.0156 24.3746 61.286 16.8375 55.6567 11.1926C55.077 10.7134 54.4994 10.217 53.941 9.73588C52.7299 8.69471 51.4781 7.6167 50.1683 6.69737C40.1634 -0.344424 29.768 -0.383826 19.2724 3.35031C9.76986 6.729 3.66707 13.4886 1.13257 23.4376ZM19.3131 6.67876C28.522 2.85201 37.7619 2.17666 46.7741 7.90817C48.4217 8.95727 52.8149 12.5078 53.5066 13.0411L53.5509 13.0739L53.5875 13.1146C57.1036 16.843 61.1295 23.6602 61.0407 30.6682C61.0113 33.6647 60.6056 36.6455 59.8331 39.5409C57.544 47.8616 52.0712 53.9256 43.1017 58.0731C33.9833 62.4391 20.9067 58.0253 17.4274 55.7285C13.5819 53.0993 10.2172 49.8285 7.48016 46.059C3.1876 39.9816 2.22428 31.2457 4.53093 23.2597C5.61048 19.5724 7.49703 16.1715 10.0538 13.3037C12.6105 10.4358 15.7734 8.1728 19.3131 6.67876Z" fill="#00AFC1"/>
</g>
<defs>
<clipPath id="clip0_1176_2687">
<rect width="64" height="64" fill="white"/>
</clipPath>
</defs>
</svg>
