<svg width="49" height="48" viewBox="0 0 49 48" fill="none" xmlns="http://www.w3.org/2000/svg">
<path d="M47.131 15.7155C46.9869 15.1253 46.6895 14.6721 46.2939 14.4395C46.1436 14.3505 45.9769 14.2939 45.804 14.2732C45.6312 14.2524 45.4559 14.2679 45.2894 14.3188C44.7533 14.4733 44.1519 14.9526 44.3333 16.3588C44.4751 17.4593 44.5927 18.5836 44.7066 19.6698C44.7552 20.1333 44.8045 20.5967 44.8543 21.0602C44.6722 24.1434 44.4706 26.9232 43.8526 29.6913C43.0452 33.3069 41.3771 36.715 38.8948 39.8205C36.8815 42.3394 34.3088 43.9005 31.0295 44.5925C28.3157 45.1452 25.5321 45.2552 22.784 44.9186C20.5501 44.6604 17.931 44.2502 15.4427 43.1637C12.5618 41.9059 10.5228 40.4205 9.02528 38.4889C6.80957 35.6229 5.22578 32.3092 4.38051 28.771C3.80829 26.5245 3.65577 24.1895 3.9309 21.8864C4.35248 18.4971 5.4936 15.1665 7.52178 11.4041C8.23571 10.0761 9.20057 8.9035 10.3615 7.95299C13.187 5.63515 15.9853 4.04344 18.9163 3.0866C21.0007 2.40601 23.3012 2.19208 25.9519 2.43278C27.7134 2.59272 29.4252 3.12495 31.0805 3.63981C31.4515 3.75508 31.8225 3.87033 32.1943 3.98192L32.3655 4.03449C32.6823 4.14356 33.0091 4.21987 33.341 4.26223C33.5611 4.28185 34.0181 4.15815 34.1051 3.89433C34.1462 3.74353 34.1545 3.58543 34.129 3.43109C34.1035 3.27676 34.0449 3.12994 33.9576 3.00093C33.7331 2.72111 33.443 2.50278 33.1137 2.3659C32.0071 1.90079 31.0064 1.48698 29.9624 1.13504C27.9753 0.462498 25.8924 0.12517 23.7973 0.136507C20.437 0.164931 17.1397 1.06349 14.2188 2.74674C13.1401 3.35655 12.1868 3.92325 11.3044 4.47928C8.7068 6.11601 6.81919 8.03305 5.5337 10.3399C3.99091 13.1077 2.92517 15.6586 2.27516 18.1375C1.50463 21.0765 1.2278 23.368 1.37737 25.5671C1.63675 29.3737 2.83402 33.1425 5.03892 37.0892C5.83326 38.5466 6.80118 39.8998 7.92098 41.1184C10.2627 43.6235 13.2297 45.3958 16.9895 46.5356C19.881 47.4153 22.8838 47.8628 25.903 47.8636C27.2025 47.8633 28.5008 47.7813 29.7904 47.6184C34.8511 46.9802 38.7476 44.7601 41.7009 40.8311C44.0642 37.6873 45.6297 34.541 46.4869 31.2136C47.4637 27.4198 47.8265 23.288 47.5961 18.5817C47.5341 17.6131 47.3783 16.6531 47.131 15.7155Z" fill="#00AFC1"/>
<path d="M28.049 9.05958C28.2565 9.08148 28.4639 9.10373 28.6714 9.12335C28.8576 9.14087 29.3544 9.18797 29.5204 8.69869C29.591 8.5144 29.5884 8.30966 29.5133 8.12721C29.4385 7.94477 29.2967 7.79873 29.1179 7.71958C28.7898 7.55149 28.4423 7.42546 28.0833 7.34437C26.4414 6.99416 24.7546 6.91565 23.088 7.11187C19.979 7.48203 17.3687 8.29738 15.1076 9.60477C12.1036 11.3415 10.2453 13.5588 9.42631 16.3843C9.30094 16.8175 9.13234 17.253 8.98329 17.6373C7.70012 20.8589 7.38028 24.3918 8.06354 27.7963C8.54633 30.2026 9.14206 32.1452 10.4799 33.805C13.5519 37.6159 17.0453 39.7661 21.1599 40.3786C22.047 40.5107 22.9585 40.5548 23.8381 40.5974C24.2389 40.6168 24.6532 40.637 25.0587 40.6652H25.075C28.254 40.5986 31.3748 39.7889 34.1938 38.299C34.8697 37.9579 35.4926 37.5178 36.0419 36.993C37.7791 35.2634 38.8738 33.6237 39.4867 31.833C39.6103 31.4719 39.7735 31.1133 39.9316 30.7665C39.98 30.6601 40.0286 30.5538 40.076 30.4471C41.4917 27.2695 41.479 23.7954 40.0371 19.8265C39.9165 19.4928 39.7281 19.1887 39.4839 18.934C39.3269 18.7561 39.1256 18.6244 38.901 18.5526C38.6764 18.4809 38.4369 18.4718 38.2077 18.5263C37.9893 18.5971 37.7941 18.7272 37.6435 18.9024C37.4929 19.0776 37.3924 19.2912 37.3532 19.5201C37.2565 19.9367 37.3281 20.4004 37.3912 20.8096L37.4056 20.9016C37.4791 21.3844 37.5681 21.8718 37.6542 22.3434C37.8003 23.1438 37.9516 23.9717 38.0289 24.7891C38.1709 26.1392 37.9923 27.5041 37.5083 28.7703C37.0775 29.9105 36.5899 31.0279 36.0473 32.118C35.15 33.8698 34.1676 35.0176 32.9551 35.7268C32.0055 36.2828 30.9333 36.678 29.8963 37.0603L29.4877 37.2114C27.6548 37.8933 25.6826 37.8947 23.7641 37.8957H23.7494C20.799 37.8957 18.5521 37.2354 16.6795 35.8184C16.3745 35.5873 16.0537 35.3712 15.7435 35.162C15.4 34.9304 15.045 34.6911 14.7154 34.4343C12.9288 33.0417 11.7615 31.4737 11.1469 29.6385C10.4234 27.4802 9.6662 24.6172 10.2344 21.6092C10.4213 20.7079 10.6535 19.8171 10.9302 18.9399C11.0985 18.3742 11.2722 17.7893 11.4188 17.2066C12.0182 14.8264 13.4709 12.9828 15.8603 11.5706C19.0835 9.66554 22.687 8.7805 26.5611 8.93431C27.056 8.95411 27.5604 9.00773 28.049 9.05958Z" fill="#00AFC1"/>
<path d="M19.6694 17.6144C20.4523 17.1591 21.2829 16.7938 22.1457 16.5252C23.0358 16.2568 23.9723 16.0753 24.8779 15.8998C25.1113 15.8544 25.3448 15.8092 25.5775 15.7624C25.8741 15.7031 26.3223 15.613 26.3314 15.082C26.3385 14.6655 26.0655 14.386 25.6016 14.3343C25.3577 14.3067 25.1124 14.2969 24.8672 14.3051C23.2206 14.3678 21.5644 14.7555 19.6555 15.5258C17.9928 16.17 16.6383 17.4374 15.8726 19.0655C14.4931 21.933 14.4114 25.0001 15.6305 28.1814C15.9737 29.0768 16.4901 30.2199 17.4448 31.1203C19.5838 33.1373 22.186 34.1597 25.18 34.1597C25.3219 34.1597 25.4643 34.1637 25.6067 34.1683C25.7378 34.1727 25.871 34.1772 26.0045 34.1772C26.1641 34.1785 26.3237 34.1697 26.4822 34.1509C28.5685 33.8899 30.2019 33.1813 31.476 31.9846C33.868 29.7379 34.9498 26.7292 34.6923 23.0418C34.6558 22.522 34.4034 22.0082 34.1808 21.5552C33.9797 21.1463 33.5197 20.8341 33.061 21.0627C32.7504 21.2551 32.5234 21.5594 32.4257 21.9145C32.366 22.162 32.3454 22.4176 32.3651 22.6714C32.3683 22.7953 32.3712 22.9123 32.3651 23.0267C32.3498 23.3084 32.3428 23.5948 32.3361 23.8721C32.3373 24.5093 32.2884 25.1455 32.19 25.7746C31.5759 29.0808 29.7366 31.0222 26.7233 31.5451C24.6003 31.913 22.5115 31.5125 20.5155 30.3539C19.7458 29.9072 18.9633 29.3791 18.4536 28.5465C16.9637 26.1129 16.5955 23.5219 17.3591 20.8455C17.7902 19.3309 18.5684 18.2435 19.6694 17.6144Z" fill="#00AFC1"/>
<path d="M39.9586 6.37101C39.984 6.23507 40.0113 6.09915 40.0386 5.96338C40.1332 5.53884 40.201 5.10867 40.2416 4.67542C40.298 3.909 39.9477 3.63677 39.3637 3.44582C39.1389 3.36546 38.897 3.34712 38.6629 3.39261C38.4286 3.43811 38.2107 3.54581 38.031 3.70474C36.3774 5.10392 34.7099 6.52188 33.0748 7.91896C32.4869 8.42191 32.2794 9.06569 32.4263 9.94475C32.5204 10.5099 32.5789 11.0934 32.6352 11.6579C32.6783 12.0869 32.7227 12.5303 32.7826 12.9658C32.8294 13.3079 32.7341 13.5398 32.4312 13.8214L32.2958 13.947C31.4596 14.7236 30.5951 15.5264 29.7827 16.3568C28.3363 17.8353 26.8777 19.3499 25.4658 20.8146C24.7956 21.5106 24.1246 22.2062 23.4532 22.9015C22.9732 23.3982 23.0741 23.7806 23.2436 24.0139C23.3062 24.1078 23.3904 24.1847 23.489 24.2382C23.5875 24.2914 23.6975 24.3195 23.8092 24.3198C24.0377 24.3086 24.2571 24.2263 24.4374 24.0838C24.7518 23.8475 25.0496 23.5893 25.3287 23.3111C26.9456 21.7649 28.5616 20.2174 30.1765 18.6688L32.8014 16.1536C33.0658 15.9008 33.2545 15.7787 33.5899 15.7927C35.022 15.8362 36.4777 15.8351 37.8856 15.8335C38.2852 15.8328 38.6848 15.8328 39.0846 15.8335H39.0879C39.3343 15.84 39.5788 15.79 39.8035 15.6873C40.0281 15.5845 40.2268 15.4317 40.3848 15.2402C41.5261 13.9205 42.7073 12.5968 43.8136 11.3629C44.357 10.7569 44.8271 10.1254 44.6165 9.06534C44.4263 8.11235 44.2989 7.69066 43.2406 7.68471C42.6881 7.68383 42.1279 7.71344 41.5863 7.74462C41.2797 7.76214 40.9731 7.77969 40.6663 7.79125C40.4187 7.80036 40.1732 7.7984 39.8882 7.79595L39.6717 7.7942C39.694 7.68453 39.7161 7.577 39.7381 7.47155C39.8168 7.0893 39.8908 6.73066 39.9586 6.37101ZM42.5148 9.87466L42.5577 9.87782L39.5953 13.6756H34.624C34.6096 13.6248 34.5939 13.5732 34.5782 13.5208C34.5057 13.3133 34.4594 13.0975 34.4398 12.8783C34.4179 12.2985 34.4189 11.7062 34.4198 11.1335C34.4198 10.79 34.421 10.4465 34.4168 10.1033C34.4127 9.76451 34.4614 9.49385 34.7118 9.27487C35.648 8.45607 36.5809 7.63287 37.5711 6.75906L38.4071 6.02189C38.3987 6.15275 38.3916 6.24788 38.3776 6.3395C38.3376 6.59929 38.2928 6.85841 38.248 7.1175C38.1631 7.61064 38.0751 8.1206 38.0219 8.6288C37.9748 9.07692 38.0367 9.38205 38.2167 9.58789C38.3968 9.79373 38.6812 9.89166 39.1173 9.89972C39.7544 9.91198 40.4016 9.89358 41.0269 9.87624C41.366 9.86696 41.7051 9.85767 42.044 9.85277C42.183 9.85242 42.3214 9.861 42.5148 9.87466Z" fill="#00AFC1"/>
</svg>
