<svg width="64" height="64" viewBox="0 0 64 64" fill="none" xmlns="http://www.w3.org/2000/svg">
<g clip-path="url(#clip0_1158_607)">
<path d="M33.4213 35.5567C36.8393 35.5868 39.4643 36.225 41.8237 37.7151C42.4761 38.1116 43.0084 38.6783 43.3634 39.3543C43.4617 39.6384 43.492 39.9415 43.452 40.2394C43.4119 40.5373 43.3026 40.8217 43.1328 41.0697C42.805 41.45 42.0176 41.6131 41.4592 41.5631C40.8787 41.462 40.3404 41.1935 39.9104 40.7905C35.3864 36.8925 27.1792 38.689 24.0483 42.1816C23.6852 42.5868 23.3524 43.0677 22.8995 43.3291C22.5317 43.5411 21.8539 43.6766 21.5881 43.4785C21.3078 43.2687 21.2004 42.589 21.2949 42.1784C21.4632 41.6608 21.7381 41.1843 22.102 40.7796C24.0289 38.312 26.6126 36.8728 29.6178 36.1878C31.072 35.8554 32.5651 35.695 33.4213 35.5567Z" fill="#00AFC1"/>
<path d="M18.8069 24.3722C18.6715 24.3798 18.5357 24.379 18.4004 24.3697C17.6748 24.2774 16.8355 24.2241 16.7833 23.2769C16.7287 22.3046 17.5628 22.2686 18.2786 22.0716C19.484 21.7346 20.6709 21.3342 21.834 20.8719C22.5957 20.5714 23.3366 20.0392 24.0319 20.8758C24.5409 21.4875 24.2232 22.5986 23.1648 23.1185C21.8171 23.7805 20.3328 24.1643 18.9072 24.6681C18.8746 24.5695 18.8412 24.4709 18.8069 24.3722Z" fill="#00AFC1"/>
<path d="M45.9526 27.64C45.3811 28.487 45.0185 29.3243 44.397 29.8623C43.7473 30.4245 42.7083 30.0488 42.1458 29.2855C41.4177 28.2976 41.4598 26.633 42.2351 25.7396C42.8613 25.0184 43.9388 24.6832 44.5166 25.261C45.1049 25.8489 45.4152 26.7136 45.9526 27.64Z" fill="#00AFC1"/>
<path d="M23.79 27.5654C23.6362 28.1353 23.6214 28.7472 23.322 29.145C23.007 29.5636 22.4226 30.0094 21.9505 30.0157C21.6718 29.9858 21.4027 29.8965 21.1614 29.7537C20.9202 29.6109 20.7123 29.4179 20.552 29.1879C19.892 28.1732 19.9909 26.9897 20.4198 25.9147C20.8487 24.8396 22.6437 24.7607 23.2185 25.7781C23.519 26.3119 23.6061 26.9649 23.79 27.5654Z" fill="#00AFC1"/>
<path d="M43.9229 24.198C43.0405 23.7628 41.9662 23.3349 41.025 22.7074C40.7308 22.5112 40.7953 21.7769 40.6956 21.2887C41.1843 21.2425 41.7996 20.9868 42.1372 21.1906C42.5573 21.4565 43.0293 21.6298 43.5217 21.6988C44.014 21.7679 44.5154 21.7312 44.9925 21.5911C45.2966 21.5122 45.6555 21.3867 45.9214 21.478C46.3747 21.675 46.8086 21.9142 47.2172 22.1924C46.9533 22.6183 46.7861 23.2222 46.4036 23.4312C45.7523 23.7874 44.9646 23.8956 43.9229 24.198Z" fill="#00AFC1"/>
<path d="M1.13208 23.4369C-1.69611 34.5527 0.78046 44.3588 8.49816 52.5863C8.69924 52.7989 8.90388 53.0114 9.10878 53.2163C13.2544 57.3619 18.4182 59.9215 22.5099 61.7028C24.2658 62.4697 33.2768 63.401 35.7149 63.0379C50.2034 60.8741 59.7381 52.7024 63.0589 39.0308C63.6931 36.3527 64.0089 33.6092 63.9998 30.8571C64.0154 24.374 61.2855 16.8369 55.6562 11.192C55.0767 10.7128 54.4992 10.2164 53.9408 9.73527C52.7294 8.6941 51.4776 7.61609 50.1678 6.69676C40.1629 -0.345034 29.7678 -0.384436 19.2722 3.3497C9.76938 6.72839 3.66685 13.488 1.13208 23.4369ZM19.3126 6.67815C28.5217 2.8514 37.7617 2.17605 46.7736 7.90756C48.4215 8.95666 52.8146 12.5072 53.5061 13.0405L53.5506 13.0733L53.5872 13.114C57.1031 16.8424 61.129 23.6596 61.0402 30.6675C61.0109 33.664 60.6053 36.6449 59.8329 39.5403C57.5438 47.8609 52.0707 53.9249 43.1012 58.0724C33.983 62.4385 20.9065 58.0247 17.4272 55.7279C13.5816 53.0988 10.2167 49.828 7.47967 46.0584C3.18711 39.981 2.22408 31.245 4.52909 23.2591C5.60878 19.5716 7.49552 16.1707 10.0525 13.3028C12.6095 10.435 15.7727 8.17203 19.3126 6.67815Z" fill="#00AFC1"/>
</g>
<defs>
<clipPath id="clip0_1158_607">
<rect width="64" height="64" fill="white"/>
</clipPath>
</defs>
</svg>
